<svg width="192" height="192" viewBox="0 0 192 192" xmlns="http://www.w3.org/2000/svg">
  <!-- Subtle cosmic background with 3D depth -->
  <defs>
    <!-- Main gradient for the T -->
    <linearGradient id="tGradient" x1="0%" y1="0%" x2="100%" y2="100%">
      <stop offset="0%" style="stop-color:#FF6B35;stop-opacity:1" />
      <stop offset="50%" style="stop-color:#F7931E;stop-opacity:1" />
      <stop offset="100%" style="stop-color:#FDC830;stop-opacity:1" />
    </linearGradient>

    <!-- 3D shadow gradient -->
    <linearGradient id="shadowGradient" x1="0%" y1="0%" x2="100%" y2="100%">
      <stop offset="0%" style="stop-color:#8B3519;stop-opacity:0.6" />
      <stop offset="100%" style="stop-color:#4A1F0F;stop-opacity:0.8" />
    </linearGradient>

    <!-- Highlight gradient for 3D effect -->
    <linearGradient id="highlightGradient" x1="0%" y1="100%" x2="100%" y2="0%">
      <stop offset="0%" style="stop-color:#FFFFFF;stop-opacity:0.4" />
      <stop offset="50%" style="stop-color:#FFFFFF;stop-opacity:0.2" />
      <stop offset="100%" style="stop-color:#FFFFFF;stop-opacity:0" />
    </linearGradient>

    <!-- Radial glow for depth -->
    <radialGradient id="glowGradient" cx="50%" cy="50%">
      <stop offset="0%" style="stop-color:#FF6B35;stop-opacity:0.3" />
      <stop offset="50%" style="stop-color:#F7931E;stop-opacity:0.15" />
      <stop offset="100%" style="stop-color:#FDC830;stop-opacity:0" />
    </radialGradient>

    <!-- Background cosmic gradient -->
    <radialGradient id="bgGradient" cx="30%" cy="30%">
      <stop offset="0%" style="stop-color:#1A1F2E;stop-opacity:1" />
      <stop offset="50%" style="stop-color:#0F1419;stop-opacity:1" />
      <stop offset="100%" style="stop-color:#0B0E17;stop-opacity:1" />
    </radialGradient>

    <!-- Subtle cosmic accent -->
    <radialGradient id="accentGradient" cx="70%" cy="70%">
      <stop offset="0%" style="stop-color:#FF6B35;stop-opacity:0.08" />
      <stop offset="100%" style="stop-color:#0B0E17;stop-opacity:0" />
    </radialGradient>
  </defs>

  <!-- Background -->
  <rect width="192" height="192" fill="url(#bgGradient)" rx="42"/>
  <rect width="192" height="192" fill="url(#accentGradient)" rx="42"/>

  <!-- Glow behind the T -->
  <ellipse cx="96" cy="100" rx="80" ry="85" fill="url(#glowGradient)" opacity="0.6"/>

  <!-- 3D Shadow layer (offset down-right) -->
  <g transform="translate(4, 4)">
    <path d="M 50 50 L 142 50 L 142 72 L 108 72 L 108 160 L 84 160 L 84 72 L 50 72 Z"
          fill="url(#shadowGradient)"
          opacity="0.5"/>
  </g>

  <!-- Main T with gradient -->
  <path d="M 50 50 L 142 50 L 142 72 L 108 72 L 108 160 L 84 160 L 84 72 L 50 72 Z"
        fill="url(#tGradient)"
        stroke="none"/>

  <!-- 3D Highlight on top-left edge -->
  <path d="M 50 50 L 142 50 L 142 72 L 108 72 L 108 160 L 84 160 L 84 72 L 50 72 Z"
        fill="url(#highlightGradient)"
        opacity="0.4"/>

  <!-- Top highlight stroke for extra depth -->
  <line x1="50" y1="50" x2="142" y2="50"
        stroke="rgba(255,255,255,0.3)"
        stroke-width="1.5"
        stroke-linecap="round"/>

  <!-- Left vertical highlight -->
  <line x1="84" y1="72" x2="84" y2="160"
        stroke="rgba(255,255,255,0.2)"
        stroke-width="1"
        stroke-linecap="round"/>
</svg>
